<svg xmlns="http://www.w3.org/2000/svg" viewBox="0 0 760 180" role="img" aria-labelledby="title desc">
  <title id="title">Amplify X-Change by Amplify Solutions Group</title>
  <desc id="desc">Amplify X-Change wordmark with Property Pathway sub-brand and byline.</desc>
  <defs>
    <linearGradient id="brass" x1="24" y1="22" x2="164" y2="158" gradientUnits="userSpaceOnUse">
      <stop offset="0" stop-color="#f3dda8"/>
      <stop offset="0.46" stop-color="#c9993a"/>
      <stop offset="1" stop-color="#8a641e"/>
    </linearGradient>
    <linearGradient id="ivory" x1="124" y1="25" x2="182" y2="88" gradientUnits="userSpaceOnUse">
      <stop offset="0" stop-color="#ffffff"/>
      <stop offset="1" stop-color="#d8d8d8"/>
    </linearGradient>
  </defs>
  <rect width="760" height="180" rx="0" fill="none"/>
  <g transform="translate(14 17)">
    <path fill="url(#brass)" d="M2 139 57 14h30L31 139H2Z"/>
    <path fill="url(#brass)" d="M62 139h31L65 89l-16 33 13 17Z"/>
    <path fill="url(#brass)" d="M88 139h34L62 14H32l56 125Z"/>
    <path fill="#06101d" d="m52 104 16-32 16 30-16 34-16-32Z" opacity="0.88"/>
    <path fill="url(#ivory)" d="m111 17 54-1-39 51-30 1 15-51Z" transform="skewX(-10)"/>
    <path fill="#06101d" d="m119 74 16-22 18 30-20 32-14-40Z" opacity="0.9"/>
  </g>
  <line x1="190" y1="28" x2="190" y2="152" stroke="#b5a642" stroke-width="2"/>
  <g font-family="Montserrat, Segoe UI, Arial, sans-serif">
    <text x="226" y="70" fill="#f7f3e9" font-size="42" font-weight="600" letter-spacing="11">AMPLIFY</text>
    <text x="226" y="116" fill="#f7f3e9" font-size="42" font-weight="600" letter-spacing="2">
      <tspan fill="#c9993a">X</tspan><tspan fill="#f7f3e9">-CHANGE</tspan>
    </text>
    <line x1="226" y1="134" x2="552" y2="134" stroke="#b5a642" stroke-width="1.4" stroke-opacity="0.78"/>
    <text x="226" y="158" fill="#c9993a" font-size="16" font-weight="600" letter-spacing="8">PROPERTY PATHWAY</text>
    <text x="556" y="158" fill="#f7f3e9" font-size="18" font-weight="400">by Amplify Solutions Group</text>
  </g>
</svg>
