<svg xmlns="http://www.w3.org/2000/svg" viewBox="0 0 220 180" role="img" aria-labelledby="title desc">
  <title id="title">Amplify X-Change AX mark</title>
  <desc id="desc">Angular AX monogram in brass and ivory.</desc>
  <defs>
    <linearGradient id="brass" x1="20" y1="18" x2="172" y2="160" gradientUnits="userSpaceOnUse">
      <stop offset="0" stop-color="#f3dda8"/>
      <stop offset="0.42" stop-color="#c9993a"/>
      <stop offset="1" stop-color="#8a641e"/>
    </linearGradient>
    <linearGradient id="ivory" x1="142" y1="20" x2="186" y2="92" gradientUnits="userSpaceOnUse">
      <stop offset="0" stop-color="#ffffff"/>
      <stop offset="1" stop-color="#d8d8d8"/>
    </linearGradient>
    <filter id="softShadow" x="-20%" y="-20%" width="140%" height="150%">
      <feDropShadow dx="0" dy="8" stdDeviation="8" flood-color="#000000" flood-opacity="0.35"/>
    </filter>
  </defs>
  <g filter="url(#softShadow)">
    <path fill="url(#brass)" d="M17 152 79 28h33L49 152H17Z"/>
    <path fill="url(#brass)" d="M82 152h35l-31-55-18 35 14 20Z"/>
    <path fill="url(#brass)" d="M111 152h37L83 28H49l62 124Z"/>
    <path fill="#07111f" d="m72 116 17-34 17 32-17 35-17-33Z" opacity="0.88"/>
    <path fill="url(#ivory)" d="m133 29 57-1-42 56-31 1 16-56Z" transform="skewX(-10)"/>
    <path fill="#07111f" d="m139 91 18-25 20 34-22 34-16-43Z" opacity="0.9"/>
  </g>
</svg>
